# File created by Blade
# Date/Time:  Thu Jan 22 16:10:14 2015
# Frame Rate: 120.000 fps
#------------------------------------------------------
:FULLY-SPECIFIED
:DEGREES
2019
root 11.963049 25.143437 -1.553751 34.577984 22.783170 -18.596754
RightUpLeg -27.965886 -41.291245 -6.379018
RightLeg -7.642204 -0.000000 0.000000
RightFoot 5.206303 -26.196593 45.865310
RightToeBase 14.366190 -0.000000 -0.000000
LeftUpLeg -105.214348 15.843871 5.388184
LeftLeg 102.895278 -0.000000 -0.000000
LeftFoot -43.696557 12.392394 -21.036052
LeftToeBase 6.233337 -0.000000 -0.000000
Spine 47.775958 -11.287566 -54.581148
RightShoulder -4.515248 -17.445040 -30.563811
RightArm -14.451966 13.077560 51.219980
RightForeArm 62.033728 -0.000000 9.917543
RightHand 7.844252 -0.000000 -23.669443
RightHandThumb1 -24.326973 -0.000000 -32.862282
LeftShoulder -8.891576 25.065891 23.830982
LeftArm 51.782331 -51.559163 -69.960012
LeftForeArm 17.987273 -0.000000 14.509275
LeftHand -27.205237 0.000000 94.179425
LeftHandThumb1 -26.253704 0.000000 33.147579
Head -27.271382 -9.966091 8.901536
2020
root 11.963455 25.143542 -1.548868 34.585097 22.787527 -18.602213
RightUpLeg -27.952632 -41.254103 -6.400381
RightLeg -7.626218 -0.000000 0.000000
RightFoot 5.167999 -26.205760 45.909106
RightToeBase 14.565556 -0.000000 -0.000000
LeftUpLeg -105.214982 15.838431 5.411171
LeftLeg 102.901961 -0.000000 -0.000000
LeftFoot -43.699830 12.410997 -21.033858
LeftToeBase 6.253950 -0.000000 -0.000000
Spine 47.789150 -11.298274 -54.574652
RightShoulder -4.513476 -17.428614 -30.554073
RightArm -14.485008 13.058148 51.213485
RightForeArm 61.961574 -0.000000 9.964088
RightHand 7.807302 0.000000 -23.749816
RightHandThumb1 -24.326973 -0.000000 -32.862282
LeftShoulder -8.898229 25.017112 23.835552
LeftArm 51.798549 -51.592189 -70.038561
LeftForeArm 18.069718 -0.000000 14.516713
LeftHand -27.226006 0.000000 94.155558
LeftHandThumb1 -26.253704 0.000000 33.147579
Head -27.292923 -10.010506 8.886115
2021
root 11.963167 25.143872 -1.543930 34.591641 22.795387 -18.604130
RightUpLeg -27.953164 -41.239554 -6.408438
RightLeg -7.603404 -0.000000 0.000000
RightFoot 5.101020 -26.242198 45.976149
RightToeBase 14.369168 -0.000000 -0.000000
LeftUpLeg -105.203009 15.826684 5.431330
LeftLeg 102.899055 -0.000000 -0.000000
LeftFoot -43.728908 12.401854 -21.051391
LeftToeBase 6.237789 -0.000000 -0.000000
Spine 47.799851 -11.314843 -54.572390
RightShoulder -4.498275 -17.433293 -30.570556
RightArm -14.479055 13.035951 51.221021
RightForeArm 62.139651 0.000000 9.931799
RightHand 7.793742 -0.000000 -23.402376
RightHandThumb1 -24.326973 -0.000000 -32.862282
LeftShoulder -8.883093 25.010320 23.840639
LeftArm 51.761438 -51.620866 -70.029990
LeftForeArm 18.068673 0.000000 14.497616
LeftHand -27.236241 0.000000 94.193754
LeftHandThumb1 -26.253704 0.000000 33.147579
Head -27.264233 -9.981659 8.835678
2022
root 11.963392 25.144453 -1.538470 34.593584 22.781998 -18.608699
RightUpLeg -27.943587 -41.192175 -6.439566
RightLeg -7.581501 -0.000000 0.000000
RightFoot 5.078075 -26.241933 46.012342
RightToeBase 14.601256 -0.000000 -0.000000
LeftUpLeg -105.188652 15.837088 5.443527
LeftLeg 102.902402 -0.000000 -0.000000
LeftFoot -43.738583 12.404772 -21.061089
LeftToeBase 6.237287 -0.000000 -0.000000
Spine 47.793267 -11.307895 -54.577602
RightShoulder -4.489850 -17.437487 -30.579177
RightArm -14.478239 13.030785 51.231614
RightForeArm 62.078115 -0.000000 9.920219
RightHand 7.775780 -0.000000 -23.710378
RightHandThumb1 -24.326973 -0.000000 -32.862282
LeftShoulder -8.853434 25.039324 23.870410
LeftArm 51.725737 -51.636590 -70.017992
LeftForeArm 17.973916 -0.000000 14.477425
LeftHand -27.209491 -0.000000 94.164420
LeftHandThumb1 -26.253704 0.000000 33.147579
Head -27.238840 -9.975665 8.802851
2023
root 11.964236 25.144719 -1.533282 34.601267 22.777904 -18.598348
RightUpLeg -27.935369 -41.168422 -6.472129
RightLeg -7.561794 -0.000000 0.000000
RightFoot 5.041873 -26.280192 46.047067
RightToeBase 14.480936 -0.000000 -0.000000
LeftUpLeg -105.176381 15.826254 5.451785
LeftLeg 102.905427 -0.000000 -0.000000
LeftFoot -43.750916 12.415887 -21.075454
LeftToeBase 6.165630 -0.000000 -0.000000
Spine 47.799761 -11.311347 -54.602356
RightShoulder -4.489919 -17.441276 -30.565283
RightArm -14.467220 13.113828 51.201647
RightForeArm 62.093250 -0.000000 9.914308
RightHand 7.757651 -0.000000 -23.810176
RightHandThumb1 -24.326973 -0.000000 -32.862282
LeftShoulder -8.820182 25.051175 23.915728
LeftArm 51.575764 -51.618470 -69.908947
LeftForeArm 17.878597 -0.000000 14.483844
LeftHand -27.225058 -0.000000 94.186575
LeftHandThumb1 -26.253704 0.000000 33.147579
Head -27.214672 -9.942372 8.786014
2024
root 11.964244 25.145723 -1.527867 34.615343 22.768607 -18.596640
RightUpLeg -27.946712 -41.146409 -6.478610
RightLeg -7.550229 -0.000000 0.000000
RightFoot 5.023545 -26.289420 46.046905
RightToeBase 14.547401 -0.000000 -0.000000
LeftUpLeg -105.172117 15.829235 5.457924
LeftLeg 102.903781 -0.000000 -0.000000
LeftFoot -43.765287 12.416981 -21.102320
LeftToeBase 6.147258 -0.000000 -0.000000
Spine 47.798927 -11.325694 -54.630664
RightShoulder -4.492607 -17.416182 -30.558492
RightArm -14.474604 13.132187 51.181880
RightForeArm 62.125355 -0.000000 9.929660
RightHand 7.741434 -0.000000 -23.860743
RightHandThumb1 -24.326973 -0.000000 -32.862282
LeftShoulder -8.816415 25.091965 23.940326
LeftArm 51.519729 -51.622633 -69.879972
LeftForeArm 17.836557 -0.000000 14.462375
LeftHand -27.167838 0.000000 94.199474
LeftHandThumb1 -26.253704 0.000000 33.147579
Head -27.202200 -9.892669 8.778955
